# OBJ generated by ONSHAPE BY PTC INC, 1.210 Units = meters
mtllib Part Studio 1 - Ramp 3.mtl
g Ramp 3
v -5.5 -0.5 -0.5 
v -5.5 0.5 -0.5 
v -5.5 0.5 0.5 
v -5.5 -0.5 3.5 
v -6.5 -0.5 -0.5 
v -6.5 0.5 -0.5 
v -6.5 -0.5 3.5 
v -6.5 0.5 0.5 
vn 1 0 -8.88178e-16 
vn 0 0 -1 
vn -1 0 8.88178e-16 
vn 0 1 0 
vn 0 -1 0 
vn 0 0.948683 0.316228 
usemtl 0.917647_0.917647_0.917647_0.000000_0.000000
o mesh0
f 1//1 2//1 3//1 
f 3//1 4//1 1//1 
o mesh1
f 2//2 1//2 5//2 
f 5//2 6//2 2//2 
o mesh2
f 5//3 7//3 8//3 
f 8//3 6//3 5//3 
o mesh3
f 8//4 3//4 2//4 
f 2//4 6//4 8//4 
o mesh4
f 5//5 1//5 4//5 
f 4//5 7//5 5//5 
o mesh5
f 7//6 4//6 3//6 
f 3//6 8//6 7//6 
